<svg xmlns="http://www.w3.org/2000/svg" version="1.1" xmlns:xlink="http://www.w3.org/1999/xlink" viewBox="0 0 5.278197208200226 4.653297841338858"><g transform="matrix(0.8489990328794483,0,0,0.8489990328794483,2.639098604100113,3.6359639960564016)"><g transform="matrix(1,0,0,1,0,0)"><path d=" M -1.2399174921797695 -2.258822111758825 Q -1.2568807348000028 -2.2796419244762665 -1.268761862057775 -2.2992488766288584 Q -1.2806429893155473 -2.31885582878145 -1.292376762700381 -2.34330659315972 L -1.216289810769368 -2.405299534371845 L -1.1906907355424707 -2.3738805442709787 Q -1.1694095766189057 -2.3477611428618252 -1.1498455717648945 -2.330320006284509 Q -1.1302815669108834 -2.312878869707192 -1.111642572299454 -2.305076325469155 Q -1.0930035776880247 -2.2972737812311173 -1.0749951431100035 -2.300294487592661 Q -1.0569867085319826 -2.303315193954205 -1.0391952322098055 -2.3178110558296767 Q -1.0111831205536117 -2.340634327718718 -1.0089110956470522 -2.3679937618504536 Q -1.0066390707404929 -2.3953531959821897 -1.0306960330019144 -2.4248794758360153 Q -1.0430329367257203 -2.4400211578123363 -1.055447074866152 -2.4510059922054817 Q -1.0678612130065837 -2.4619908265986274 -1.0831494762457319 -2.4703190092223077 Q -1.09843773948488 -2.478647191845988 -1.1184016312692375 -2.485370257008192 Q -1.138365523053595 -2.4920933221703967 -1.1658720535215656 -2.4980245010423325 L -1.3670820592452748 -2.536262398766618 Q -1.422711965367406 -2.548881840609306 -1.4663126177487154 -2.572247041098245 Q -1.5099132701300246 -2.5956122415871845 -1.5426060649981106 -2.6357376988244354 Q -1.5688219854111982 -2.667913773024117 -1.580688625211641 -2.7029634572491084 Q -1.5925552650120838 -2.7380131414740996 -1.5895119260860828 -2.77292918667337 Q -1.5864685871600819 -2.8078452318726406 -1.5674357904318037 -2.841302740873263 Q -1.5484029937035257 -2.8747602498738853 -1.5131985831085795 -2.903443551031734 Q -1.4704233315254727 -2.9382953040514854 -1.4319738838161222 -2.9494678642491126 Q -1.3935244361067716 -2.9606404244467397 -1.3604520690424629 -2.954835254566804 Q -1.327379701978154 -2.9490300846868687 -1.3004834168094686 -2.930319940472311 Q -1.273587131640783 -2.911609796257754 -1.2535396630895983 -2.887004563046232 Q -1.236576420469365 -2.8661847503287907 -1.225452377310409 -2.845960952990009 Q -1.2143283341514528 -2.825737155651227 -1.2012206314816127 -2.801146152360331 L -1.2769290413632175 -2.7394616337413016 L -1.3019112714039245 -2.7701235397433512 Q -1.3438567440648648 -2.8216052584628426 -1.380980521991176 -2.8370210759142136 Q -1.418104299917487 -2.8524368933655846 -1.4514160002653933 -2.8252957051732115 Q -1.479049569872179 -2.8027808558772658 -1.4801859686305143 -2.7763466895248152 Q -1.4813223673888496 -2.749912523172365 -1.4603496310583797 -2.724171663812619 Q -1.4492464177069544 -2.7105441500339307 -1.438220181235451 -2.701262754863121 Q -1.4271939447639475 -2.6919813596923117 -1.4156628997143321 -2.6859455167093143 Q -1.4041318546647166 -2.679909673726317 -1.391360004282408 -2.6758295454863594 Q -1.378588153900099 -2.671749417246402 -1.3636852901339678 -2.6681458952800092 L -1.1374783093755185 -2.6231917898171284 Q -1.0734366438628797 -2.6079784431642716 -1.0264011682690546 -2.584262645393768 Q -0.9793656926752293 -2.560546847623264 -0.9454392074347631 -2.5189072221883815 Q -0.9173727514631045 -2.4844598956922512 -0.9056463505752874 -2.4480362821822537 Q -0.8939199496874701 -2.411612668672256 -0.8982531260582429 -2.3759606267184044 Q -0.9025863024290156 -2.340308584764552 -0.9224953348245009 -2.306766983923695 Q -0.942404367219986 -2.2732253830828384 -0.9779873198643403 -2.2442336593318943 Q -1.0218981975956711 -2.2084566385328572 -1.0604177647613346 -2.1965971136927274 Q -1.098937331926998 -2.184737588852597 -1.1318905474229157 -2.190010005386577 Q -1.1648437629188333 -2.195282421920557 -1.1918942593840665 -2.2141818371598183 Q -1.2189447558492996 -2.2330812523990797 -1.2399174921797695 -2.258822111758825 M -0.9449755976248501 -3.131445242921476 L -1.0687724276302277 -3.0794380326023743 L -1.1073523218305796 -3.171272771951818 L -0.7436147267602337 -3.3240794117257613 L -0.7050348325598818 -3.232244672376317 L -0.8283814922743307 -3.1804265791856485 L -0.543949331110952 -2.5033704616289647 L -0.6605434364614714 -2.4543891253647927 L -0.9449755976248501 -3.131445242921476 M -0.4158522917196832 -3.4049433585411792 L -0.2792943667207536 -3.4182738703252475 Q -0.255967746080367 -3.4205509684235937 -0.22783464026337508 -3.421334857133872 Q -0.19970153444638317 -3.42211874584415 -0.17102287387666248 -3.4173139650260027 Q -0.1423442133069418 -3.412509184207855 -0.1148741248629957 -3.399982090633054 Q -0.08740403641904959 -3.387454997058253 -0.06467449362974259 -3.3631812899020126 Q -0.041944950840435646 -3.3389075827457733 -0.02592934644408401 -3.300486913376339 Q -0.009913742047732377 -3.2620662440069044 -0.004410754976729103 -3.2056935774593036 L -0.0023708545969606254 -3.184796813135624 Q 0.006879856427570719 -3.0900324167840534 -0.014523190214392634 -3.027844322576663 Q -0.035926236856355986 -2.965656228369273 -0.08633536919992768 -2.9342428698838434 L 0.07922196531332981 -2.6153229319997355 L -0.053934160842210144 -2.602324497021676 L -0.19456350605493844 -2.9020913578733936 L -0.24170271859905293 -2.8974897221329856 L -0.2113888501648194 -2.5869540848578394 L -0.3348255510535316 -2.574904440754091 L -0.4158522917196832 -3.4049433585411792 M -0.23162103400354583 -2.990216490582731 Q -0.19857498809633156 -2.9934423795553884 -0.17644593187501958 -3.00296160706014 Q -0.15431687565370755 -3.012480834564891 -0.14190781281870923 -3.031108561181261 Q -0.12949874998371091 -3.0497362877976313 -0.1259563368676323 -3.0787823207714045 Q -0.12241392375155363 -3.1078283537451776 -0.12649372451109053 -3.149621882392537 L -0.13289806291268919 -3.215228002943624 Q -0.1360290727979152 -3.2473021063241556 -0.14413782605635794 -3.2700594524399555 Q -0.1522465793148008 -3.292816798555756 -0.16756738617521227 -3.3065298807234456 Q -0.18288819303562368 -3.3202429628911356 -0.20644043556840203 -3.325302873286626 Q -0.2299926781011804 -3.3303627836821157 -0.2644966377984188 -3.326994576078312 L -0.2834495170687329 -3.325144433873406 L -0.2505739132738599 -2.988366348377825 L -0.23162103400354583 -2.990216490582731 M 0.3032291565514419 -3.415705171978599 L 0.42820402410841907 -3.396349573723109 L 0.30056170047762054 -2.572190987671692 L 0.17558683292064337 -2.591546585927182 L 0.3032291565514419 -3.415705171978599 M 0.7727217107218742 -3.313569581391034 L 0.8933575628551914 -3.2616157751547576 Q 0.9207136482831927 -3.2498344287591707 0.9494118266954801 -3.2356143551868928 Q 0.9781100051077675 -3.221394281614615 1.0026623182902186 -3.2012509424764475 Q 1.0272146314726696 -3.18110760333828 1.0448615536270887 -3.1535712438545898 Q 1.0625084757815078 -3.126034884370899 1.0683070775237034 -3.087652059534756 Q 1.074105679265899 -3.0492692346986123 1.0652964347976757 -2.998570189730383 Q 1.056487190329452 -2.947871144762153 1.0279029400581918 -2.881499003067986 L 0.932107074284239 -2.659062636309156 Q 0.9035228240129789 -2.5926904946149887 0.8726424507059053 -2.551230923920034 Q 0.8417620773988317 -2.509771353225079 0.8099865725384976 -2.4878362519945636 Q 0.7782110676781635 -2.4659011507640485 0.7460788835619573 -2.4598029789838027 Q 0.7139466994457511 -2.4537048072035574 0.682441460521642 -2.4577035713350357 Q 0.6509362215975332 -2.4617023354665135 0.6208860854021456 -2.4727831861208243 Q 0.5908359492067581 -2.4838640367751346 0.5634798637787568 -2.4956453831707215 L 0.44284401164543963 -2.5475991894069985 L 0.7727217107218742 -3.313569581391034 M 0.6235514126569421 -2.5660010563562192 Q 0.6549436418366158 -2.552481478525218 0.6788250536742326 -2.5517660404384115 Q 0.7027064655118493 -2.551050602351605 0.723378392148591 -2.5663374254252282 Q 0.7440503187853327 -2.5816242484988514 0.7636961638071947 -2.6148970229601995 Q 0.7833420088290569 -2.6481697974215477 0.8065184279679165 -2.701985047443845 L 0.9088809458312129 -2.9396690683756597 Q 0.9320573649700725 -2.9934843183979574 0.942734001654885 -3.0306198293824487 Q 0.9534106383396975 -3.06775534036694 0.9503141628832578 -3.0932784152268926 Q 0.9472176874268179 -3.1188014900868453 0.930289201330859 -3.1356615031803408 Q 0.9133607152349 -3.1525215162738363 0.8819684860552265 -3.1660410941048376 L 0.8523700985429628 -3.1787881246312106 L 0.5939530251446785 -2.578748086882592 L 0.6235514126569421 -2.5660010563562192 M 1.4454987362475666 -2.9519030956358963 L 1.6812083846652615 -2.7519714481049644 L 1.6167754366458142 -2.6760081490888354 L 1.4775093884495774 -2.794135220457822 L 1.3161111706165505 -2.603854603804675 L 1.4237258442227334 -2.512574594110458 L 1.3592928962032862 -2.436611295094329 L 1.2516782225971033 -2.527891304788546 L 1.0669072687178063 -2.310055373786411 L 1.2098970080422844 -2.188769824573334 L 1.1454640600228374 -2.112806525557205 L 0.9060307204769009 -2.315896650932227 L 1.4454987362475666 -2.9519030956358963" fill="#ffffff" fill-rule="nonzero"></path></g><g transform="matrix(1,0,0,1,0,0)"><path d=" M -2.1047696200284087 0.28697620738636365 L -2.103215997869318 0.3515625 Q -2.103215997869318 0.3615500710227273 -2.112759676846591 0.36510120738636365 Q -2.115201083096591 0.3659889914772727 -2.1185302734374996 0.3659889914772727 Q -2.1218594637784087 0.3659889914772727 -2.1256325461647725 0.3623268821022727 Q -2.1294056285511362 0.3586647727272727 -2.128739790482954 0.35078568892045453 Q -2.1280739524147725 0.34290660511363635 -2.1271861683238633 0.3351384943181818 Q -2.126298384232954 0.3273703835227273 -2.1256325461647725 0.31938032670454547 Q -2.1240789240056817 0.30073686079545453 -2.1240789240056817 0.2903053977272727 Q -2.1240789240056817 0.27987393465909094 -2.1243008700284087 0.27232776988636365 Q -2.1245228160511362 0.26478160511363635 -2.124966708096591 0.25679154829545453 Q -2.125188654119318 0.25035511363636365 -2.1256325461647725 0.24236505681818182 Q -2.1329567649147725 0.2237215909090909 -2.1418346058238633 0.20263671875 Q -2.153153852982954 0.17511541193181818 -2.165360884232954 0.14537464488636365 Q -2.215520685369318 0.024636008522727293 -2.215520685369318 0.0146484375 Q -2.215520685369318 0.009099786931818177 -2.2121914950284087 0.005770596590909116 Q -2.2088623046874996 0.00244140625 -2.2036465731534087 0.002219460227272707 Q -2.198430841619318 0.0019975142045454697 -2.1955455433238633 0.00565962357954547 Q -2.1926602450284087 0.00932173295454547 -2.1870006214488633 0.02885298295454547 Q -2.181340997869318 0.04838423295454547 -2.170243696732954 0.07912375710227271 Q -2.159146395596591 0.10986328125 -2.1478271484374996 0.13782848011363635 Q -2.1329567649147725 0.1748934659090909 -2.1143132990056817 0.21661931818181818 Q -2.1109841086647725 0.20751953125 -2.1072110262784087 0.19731001420454544 Q -2.100774591619318 0.1806640625 -2.0940052379261362 0.162353515625 Q -2.087235884232954 0.14404296875 -2.080244584517045 0.12484463778409091 Q -2.0732532848011362 0.10564630681818182 -2.066816850142045 0.08722478693181818 Q -2.0512806285511362 0.04216974431818182 -2.047063654119318 0.02718838778409094 Q -2.0428466796874996 0.01220703125 -2.039961381392045 0.00654740767045453 Q -2.037076083096591 0.0008877840909091161 -2.0313054865056817 0.0008877840909091161 Q -2.0206520774147725 0.0008877840909091161 -2.0206520774147725 0.01131924715909094 Q -2.0206520774147725 0.019309303977272707 -2.0365212180397725 0.06059126420454547 Q -2.0523903586647725 0.10187322443181818 -2.0569402521306817 0.11485706676136365 Q -2.061490145596591 0.1278409090909091 -2.0657071200284087 0.13927112926136365 Q -2.069924094460227 0.15070134943181818 -2.074806906960227 0.16368519176136365 Q -2.079689719460227 0.1766690340909091 -2.084905450994318 0.19031871448863635 Q -2.0901211825284087 0.20396839488636365 -2.0947820490056817 0.2163973721590909 Q -2.1001087535511362 0.22971413352272727 -2.1036598899147725 0.23881392045454544 Q -2.1047696200284087 0.2783203125 -2.1047696200284087 0.28697620738636365 M -1.9006902521306817 0.37064985795454547 Q -1.9470769708806817 0.37064985795454547 -1.9689386541193181 0.32270951704545453 Q -1.9908003373579544 0.27476917613636365 -1.9908003373579544 0.18110795454545456 Q -1.9908003373579544 0.10719992897727271 -1.9657204367897725 0.057040127840909116 Q -1.9532914595170452 0.032626065340909116 -1.9355357776988635 0.018088600852272707 Q -1.9177800958806817 0.0035511363636363535 -1.8945867365056817 0.0035511363636363535 Q -1.8713933771306817 0.0035511363636363535 -1.8540815873579544 0.015647194602272707 Q -1.836769797585227 0.027743252840909116 -1.8254505504261362 0.05060369318181818 Q -1.803255948153409 0.09543678977272729 -1.8028120561079544 0.18110795454545456 Q -1.8023681640624998 0.2712180397727273 -1.8285577947443181 0.3213778409090909 Q -1.8543035333806817 0.37064985795454547 -1.9006902521306817 0.37064985795454547 M -1.870949485085227 0.02962979403409094 Q -1.881380948153409 0.023082386363636354 -1.8940318714488635 0.023082386363636354 Q -1.9066827947443181 0.023082386363636354 -1.9168923117897725 0.02962979403409094 Q -1.927101828835227 0.03617720170454547 -1.9354248046874998 0.047718394886363646 Q -1.9437477805397725 0.05925958806818182 -1.9500732421874998 0.07490678267045453 Q -1.956398703835227 0.09055397727272729 -1.9608376242897725 0.10853160511363635 Q -1.9694935191761362 0.14537464488636365 -1.9694935191761362 0.18210671164772727 Q -1.9694935191761362 0.2188387784090909 -1.9667191938920452 0.24369673295454547 Q -1.9639448686079544 0.2685546875 -1.9590620561079544 0.2866432883522727 Q -1.9541792436079544 0.30473188920454547 -1.9474098899147725 0.3168279474431818 Q -1.9406405362215908 0.3289240056818182 -1.9328724254261362 0.3362482244318182 Q -1.9184459339488635 0.3493430397727273 -1.898470791903409 0.3493430397727273 Q -1.8394331498579544 0.3493430397727273 -1.8267822265624998 0.2408114346590909 Q -1.8238969282670454 0.21595348011363635 -1.8238969282670454 0.19020774147727273 Q -1.8238969282670454 0.1644620028409091 -1.8254505504261362 0.14515269886363635 Q -1.827004172585227 0.12584339488636365 -1.8304443359374998 0.10797674005681818 Q -1.8338844992897725 0.09011008522727271 -1.8393221768465908 0.07457386363636365 Q -1.844759854403409 0.05903764204545453 -1.852638938210227 0.047607421875 Q -1.8605180220170454 0.03617720170454547 -1.870949485085227 0.02962979403409094 M -1.7438853870738635 0.25057705965909094 L -1.743441495028409 0.15669389204545456 Q -1.743441495028409 0.07679332386363635 -1.7485462535511362 0.021306818181818177 Q -1.7492120916193181 0.01420454545454547 -1.7449951171874998 0.010764382102272707 Q -1.7407781427556817 0.00732421875 -1.7353404651988635 0.00732421875 Q -1.7299027876420452 0.00732421875 -1.7254638671874998 0.010764382102272707 Q -1.7210249467329544 0.01420454545454547 -1.721468838778409 0.025856711647727293 Q -1.7219127308238635 0.037508877840909116 -1.7224675958806817 0.05537553267045453 Q -1.7230224609374998 0.0732421875 -1.7234663529829544 0.09321732954545453 Q -1.7243541370738635 0.13316761363636365 -1.7243541370738635 0.16557173295454547 Q -1.7243541370738635 0.19797585227272727 -1.7242431640624998 0.20984996448863635 Q -1.7241321910511362 0.22172407670454544 -1.723910245028409 0.2328213778409091 Q -1.7228005149147725 0.29185901988636365 -1.7172518643465908 0.3076171875 Q -1.711703213778409 0.32337535511363635 -1.704378995028409 0.3318093039772727 Q -1.689730557528409 0.34867720170454547 -1.6666481711647725 0.34867720170454547 Q -1.6428999467329544 0.34867720170454547 -1.6273637251420454 0.3311434659090909 Q -1.6113836115056817 0.31294389204545453 -1.6087202592329544 0.28031782670454547 Q -1.6062788529829544 0.24036754261363635 -1.6062788529829544 0.21617542613636365 Q -1.6062788529829544 0.1919833096590909 -1.6063898259943181 0.17433860085227273 Q -1.6065007990056817 0.15669389204545456 -1.6069446910511362 0.13472123579545456 Q -1.6087202592329544 0.07080078125 -1.6104958274147725 0.01997514204545453 Q -1.6107177734374998 0.012872869318181823 -1.606722745028409 0.009543678977272707 Q -1.6027277166193181 0.0062144886363636465 -1.5976229580965908 0.0062144886363636465 Q -1.5925181995738635 0.0062144886363636465 -1.5883012251420454 0.009543678977272707 Q -1.584084250710227 0.012872869318181823 -1.5843061967329544 0.01997514204545453 Q -1.5851939808238635 0.05304509943181818 -1.585304953835227 0.08522727272727271 Q -1.5854159268465908 0.11740944602272727 -1.5856378728693181 0.14914772727272727 Q -1.5860817649147725 0.2261629971590909 -1.5885231711647725 0.2597878196022727 Q -1.5909645774147725 0.29341264204545453 -1.5959583629261362 0.31050248579545453 Q -1.6009521484374998 0.32759232954545453 -1.6102738813920454 0.3409090909090909 Q -1.631136807528409 0.37064985795454547 -1.6664262251420454 0.37064985795454547 Q -1.7247980291193181 0.37064985795454547 -1.7392245205965908 0.30606356534090906 Q -1.7438853870738635 0.2858664772727273 -1.7438853870738635 0.2610085227272727 L -1.7438853870738635 0.25057705965909094 M -1.4914217862215908 0.26256214488636365 Q -1.4896462180397727 0.31294389204545453 -1.4885364879261362 0.35000887784090906 Q -1.488314541903409 0.35755504261363635 -1.4923095703125 0.36121715198863635 Q -1.4963045987215908 0.36487926136363635 -1.5008544921875 0.36487926136363635 Q -1.505404385653409 0.36487926136363635 -1.5088445490056817 0.36143909801136365 Q -1.5122847123579546 0.3579989346590909 -1.5122847123579546 0.35111860795454547 L -1.5122847123579546 0.18421519886363635 Q -1.5122847123579546 0.09765625 -1.5165016867897727 0.02885298295454547 Q -1.5171675248579546 0.01908735795454547 -1.5111749822443181 0.015314275568181823 Q -1.5087335759943181 0.01376065340909094 -1.5060702237215908 0.013427734375 Q -1.5034068714488635 0.013094815340909116 -1.4943070845170454 0.010431463068181823 Q -1.4714466441761362 0.003995028409090939 -1.4489191228693181 0.003995028409090939 Q -1.4263916015625 0.003995028409090939 -1.4116321910511362 0.00898881392045453 Q -1.3968727805397727 0.013982599431818177 -1.3864413174715908 0.024192116477272707 Q -1.3642467151988635 0.04594282670454547 -1.3642467151988635 0.08833451704545453 Q -1.3642467151988635 0.14293323863636365 -1.4073042436079546 0.1937588778409091 Q -1.4141845703125 0.20197088068181818 -1.4219526811079546 0.2099609375 Q -1.4002019708806817 0.2765447443181818 -1.3709050958806817 0.3457919034090909 Q -1.3655783913352273 0.35777698863636365 -1.3762318004261362 0.36332563920454547 Q -1.3788951526988635 0.36465731534090906 -1.3824462890625 0.36465731534090906 Q -1.3904363458806817 0.36465731534090906 -1.3937655362215908 0.3555575284090909 Q -1.4008678089488635 0.33491654829545453 -1.4066384055397727 0.3159401633522727 Q -1.4124090021306817 0.29696377840909094 -1.4179576526988635 0.2789861505681818 Q -1.4277232776988635 0.24658203125 -1.4363791725852273 0.22349964488636365 Q -1.4607932350852273 0.2450284090909091 -1.4914217862215908 0.26256214488636365 M -1.4920876242897727 0.2414772727272727 Q -1.4570201526988635 0.22105823863636365 -1.4263916015625 0.18599076704545456 Q -1.3853315873579546 0.1382723721590909 -1.3853315873579546 0.09033203125 Q -1.3853315873579546 0.04061612215909094 -1.4201771129261362 0.026189630681818177 Q -1.4392644708806817 0.018199573863636354 -1.468783291903409 0.02397017045454547 Q -1.4827658913352273 0.026633522727272707 -1.4916437322443181 0.031072443181818177 Q -1.4945290305397727 0.09787819602272729 -1.4945290305397727 0.1431551846590909 Q -1.4945290305397727 0.1913174715909091 -1.494418057528409 0.1949795809659091 Q -1.4943070845170454 0.1986416903409091 -1.4941961115056817 0.20163796164772727 Q -1.4940851384943181 0.20463423295454544 -1.4938631924715908 0.2078524502840909 Q -1.4936412464488635 0.21107066761363635 -1.4933083274147727 0.21706321022727273 Q -1.4929754083806817 0.2230557528409091 -1.4925315163352273 0.23259943181818182 Q -1.4923095703125 0.23659446022727273 -1.4920876242897727 0.2414772727272727 M -1.2066650390625 0.26256214488636365 Q -1.2048894708806819 0.31294389204545453 -1.2037797407670454 0.35000887784090906 Q -1.2035577947443181 0.35755504261363635 -1.2075528231534092 0.36121715198863635 Q -1.2115478515625 0.36487926136363635 -1.2160977450284092 0.36487926136363635 Q -1.2206476384943181 0.36487926136363635 -1.2240878018465908 0.36143909801136365 Q -1.2275279651988638 0.3579989346590909 -1.2275279651988638 0.35111860795454547 L -1.2275279651988638 0.18421519886363635 Q -1.2275279651988638 0.09765625 -1.2317449396306819 0.02885298295454547 Q -1.2324107776988638 0.01908735795454547 -1.2264182350852273 0.015314275568181823 Q -1.2239768288352273 0.01376065340909094 -1.2213134765625 0.013427734375 Q -1.2186501242897727 0.013094815340909116 -1.2095503373579546 0.010431463068181823 Q -1.1866898970170454 0.003995028409090939 -1.1641623757102273 0.003995028409090939 Q -1.1416348544034092 0.003995028409090939 -1.1268754438920454 0.00898881392045453 Q -1.1121160333806819 0.013982599431818177 -1.1016845703125 0.024192116477272707 Q -1.0794899680397727 0.04594282670454547 -1.0794899680397727 0.08833451704545453 Q -1.0794899680397727 0.14293323863636365 -1.1225474964488638 0.1937588778409091 Q -1.1294278231534092 0.20197088068181818 -1.1371959339488638 0.2099609375 Q -1.1154452237215908 0.2765447443181818 -1.0861483487215908 0.3457919034090909 Q -1.0808216441761365 0.35777698863636365 -1.0914750532670454 0.36332563920454547 Q -1.0941384055397727 0.36465731534090906 -1.0976895419034092 0.36465731534090906 Q -1.1056795987215908 0.36465731534090906 -1.1090087890625 0.3555575284090909 Q -1.1161110617897727 0.33491654829545453 -1.1218816583806819 0.3159401633522727 Q -1.1276522549715908 0.29696377840909094 -1.1332009055397727 0.2789861505681818 Q -1.1429665305397727 0.24658203125 -1.1516224254261365 0.22349964488636365 Q -1.1760364879261365 0.2450284090909091 -1.2066650390625 0.26256214488636365 M -1.2073308771306819 0.2414772727272727 Q -1.1722634055397727 0.22105823863636365 -1.1416348544034092 0.18599076704545456 Q -1.1005748401988638 0.1382723721590909 -1.1005748401988638 0.09033203125 Q -1.1005748401988638 0.04061612215909094 -1.1354203657670454 0.026189630681818177 Q -1.1545077237215908 0.018199573863636354 -1.1840265447443181 0.02397017045454547 Q -1.1980091441761365 0.026633522727272707 -1.2068869850852273 0.031072443181818177 Q -1.2097722833806819 0.09787819602272729 -1.2097722833806819 0.1431551846590909 Q -1.2097722833806819 0.1913174715909091 -1.2096613103693181 0.1949795809659091 Q -1.2095503373579546 0.1986416903409091 -1.2094393643465908 0.20163796164772727 Q -1.2093283913352273 0.20463423295454544 -1.2091064453125 0.2078524502840909 Q -1.2088844992897727 0.21107066761363635 -1.2085515802556819 0.21706321022727273 Q -1.2082186612215908 0.2230557528409091 -1.2077747691761365 0.23259943181818182 Q -1.2075528231534092 0.23659446022727273 -1.2073308771306819 0.2414772727272727 M -1.0234485973011365 0.25057705965909094 L -1.0230047052556819 0.15669389204545456 Q -1.0230047052556819 0.07679332386363635 -1.0281094637784092 0.021306818181818177 Q -1.028775301846591 0.01420454545454547 -1.0245583274147727 0.010764382102272707 Q -1.0203413529829546 0.00732421875 -1.0149036754261365 0.00732421875 Q -1.0094659978693181 0.00732421875 -1.0050270774147727 0.010764382102272707 Q -1.0005881569602273 0.01420454545454547 -1.0010320490056819 0.025856711647727293 Q -1.0014759410511365 0.037508877840909116 -1.0020308061079546 0.05537553267045453 Q -1.0025856711647727 0.0732421875 -1.0030295632102273 0.09321732954545453 Q -1.0039173473011365 0.13316761363636365 -1.0039173473011365 0.16557173295454547 Q -1.0039173473011365 0.19797585227272727 -1.0038063742897727 0.20984996448863635 Q -1.0036954012784092 0.22172407670454544 -1.0034734552556819 0.2328213778409091 Q -1.0023637251420454 0.29185901988636365 -0.9968150745738636 0.3076171875 Q -0.9912664240056819 0.32337535511363635 -0.9839422052556819 0.3318093039772727 Q -0.9692937677556819 0.34867720170454547 -0.9462113813920455 0.34867720170454547 Q -0.9224631569602273 0.34867720170454547 -0.9069269353693182 0.3311434659090909 Q -0.8909468217329546 0.31294389204545453 -0.8882834694602273 0.28031782670454547 Q -0.8858420632102273 0.24036754261363635 -0.8858420632102273 0.21617542613636365 Q -0.8858420632102273 0.1919833096590909 -0.8859530362215909 0.17433860085227273 Q -0.8860640092329546 0.15669389204545456 -0.8865079012784092 0.13472123579545456 Q -0.8882834694602273 0.07080078125 -0.8900590376420455 0.01997514204545453 Q -0.8902809836647727 0.012872869318181823 -0.8862859552556819 0.009543678977272707 Q -0.8822909268465909 0.0062144886363636465 -0.8771861683238636 0.0062144886363636465 Q -0.8720814098011365 0.0062144886363636465 -0.8678644353693182 0.009543678977272707 Q -0.8636474609375 0.012872869318181823 -0.8638694069602273 0.01997514204545453 Q -0.8647571910511365 0.05304509943181818 -0.8648681640625 0.08522727272727271 Q -0.8649791370738636 0.11740944602272727 -0.8652010830965909 0.14914772727272727 Q -0.8656449751420455 0.2261629971590909 -0.8680863813920455 0.2597878196022727 Q -0.8705277876420455 0.29341264204545453 -0.8755215731534092 0.31050248579545453 Q -0.8805153586647727 0.32759232954545453 -0.8898370916193182 0.3409090909090909 Q -0.9107000177556819 0.37064985795454547 -0.9459894353693182 0.37064985795454547 Q -1.004361239346591 0.37064985795454547 -1.0187877308238638 0.30606356534090906 Q -1.0234485973011365 0.2858664772727273 -1.0234485973011365 0.2610085227272727 L -1.0234485973011365 0.25057705965909094 M -0.6260542436079546 0.017755681818181823 Q -0.6273859197443182 0.12828480113636365 -0.6273859197443182 0.17411665482954547 Q -0.6273859197443182 0.21994850852272727 -0.6272749467329546 0.2413662997159091 Q -0.6271639737215909 0.26278409090909094 -0.6269420276988636 0.28209339488636365 Q -0.6264981356534092 0.3229314630681818 -0.6259432705965909 0.3379128196022727 Q -0.6253884055397727 0.35289417613636365 -0.6267200816761365 0.3557794744318182 Q -0.6280517578125 0.3586647727272727 -0.6302712180397727 0.3606622869318182 Q -0.6393710049715909 0.3688742897727273 -0.6495805220170455 0.36221590909090906 Q -0.6535755504261365 0.3595525568181818 -0.6553511186079546 0.3542258522727273 Q -0.6748823686079546 0.29696377840909094 -0.7024036754261365 0.2298251065340909 Q -0.7299249822443182 0.1626864346590909 -0.7408003373579546 0.13494318181818182 Q -0.7605535333806819 0.08456143465909094 -0.7752019708806819 0.042613636363636354 L -0.7723166725852273 0.3522283380681818 Q -0.7723166725852273 0.3591086647727273 -0.7758678089488636 0.36243785511363635 Q -0.7794189453125 0.36576704545454547 -0.7839688387784092 0.36576704545454547 Q -0.7885187322443182 0.36576704545454547 -0.7924027876420455 0.36210493607954547 Q -0.7962868430397727 0.35844282670454547 -0.7960648970170455 0.35111860795454547 Q -0.7938454367897727 0.29008345170454547 -0.7938454367897727 0.21195845170454544 L -0.7938454367897727 0.08034446022727271 Q -0.7938454367897727 0.04594282670454547 -0.7942893288352273 0.02108487215909094 Q -0.7942893288352273 0.012872869318181823 -0.7892955433238636 0.008544921875 Q -0.7843017578125 0.004216974431818177 -0.7787531072443182 0.004216974431818177 Q -0.7663241299715909 0.004216974431818177 -0.7623291015625 0.015980113636363646 Q -0.7583340731534092 0.027743252840909116 -0.7510098544034092 0.047607421875 Q -0.7436856356534092 0.06747159090909094 -0.7345858487215909 0.09177468039772729 Q -0.7254860617897727 0.11607776988636365 -0.7150545987215909 0.14326615767045456 Q -0.7046231356534092 0.17045454545454547 -0.6941916725852273 0.1974209872159091 Q -0.6837602095170455 0.22438742897727273 -0.6739945845170455 0.24968927556818182 Q -0.6642289595170455 0.27499112215909094 -0.6562389026988636 0.2956321022727273 Q -0.6482488458806819 0.31627308238636365 -0.6427001953125 0.33092151988636365 Q -0.6424782492897727 0.33158735795454547 -0.6422563032670455 0.33203125 Q -0.6440318714488636 0.28852982954545453 -0.6451416015625 0.23726029829545456 Q -0.6462513316761365 0.1748934659090909 -0.6470281427556819 0.14382102272727273 Q -0.6478049538352273 0.11274857954545453 -0.6485817649147727 0.08089932528409094 Q -0.6493585759943182 0.04905007102272729 -0.6504683061079546 0.017755681818181823 Q -0.6504683061079546 0.010653409090909116 -0.6465842507102273 0.0072132457386363535 Q -0.6427001953125 0.0037730823863636465 -0.6380393288352273 0.0037730823863636465 Q -0.6333784623579546 0.0037730823863636465 -0.6297163529829546 0.0072132457386363535 Q -0.6260542436079546 0.010653409090909116 -0.6260542436079546 0.017755681818181823 M -0.3877951882102273 0.017755681818181823 Q -0.38912686434659094 0.12828480113636365 -0.38912686434659094 0.17411665482954547 Q -0.38912686434659094 0.21994850852272727 -0.3890158913352273 0.2413662997159091 Q -0.38890491832386365 0.26278409090909094 -0.38868297230113635 0.28209339488636365 Q -0.3882390802556818 0.3229314630681818 -0.38768421519886365 0.3379128196022727 Q -0.38712935014204547 0.35289417613636365 -0.3884610262784091 0.3557794744318182 Q -0.3897927024147727 0.3586647727272727 -0.39201216264204547 0.3606622869318182 Q -0.40111194957386365 0.3688742897727273 -0.41132146661931823 0.36221590909090906 Q -0.4153164950284091 0.3595525568181818 -0.4170920632102273 0.3542258522727273 Q -0.4366233132102273 0.29696377840909094 -0.4641446200284091 0.2298251065340909 Q -0.49166592684659094 0.1626864346590909 -0.5025412819602273 0.13494318181818182 Q -0.5222944779829546 0.08456143465909094 -0.5369429154829546 0.042613636363636354 L -0.5340576171875 0.3522283380681818 Q -0.5340576171875 0.3591086647727273 -0.5376087535511364 0.36243785511363635 Q -0.5411598899147727 0.36576704545454547 -0.5457097833806819 0.36576704545454547 Q -0.5502596768465909 0.36576704545454547 -0.5541437322443182 0.36210493607954547 Q -0.5580277876420454 0.35844282670454547 -0.5578058416193182 0.35111860795454547 Q -0.5555863813920454 0.29008345170454547 -0.5555863813920454 0.21195845170454544 L -0.5555863813920454 0.08034446022727271 Q -0.5555863813920454 0.04594282670454547 -0.5560302734375 0.02108487215909094 Q -0.5560302734375 0.012872869318181823 -0.5510364879261364 0.008544921875 Q -0.5460427024147727 0.004216974431818177 -0.5404940518465909 0.004216974431818177 Q -0.5280650745738636 0.004216974431818177 -0.5240700461647727 0.015980113636363646 Q -0.5200750177556819 0.027743252840909116 -0.5127507990056819 0.047607421875 Q -0.5054265802556819 0.06747159090909094 -0.49632679332386365 0.09177468039772729 Q -0.48722700639204547 0.11607776988636365 -0.47679554332386365 0.14326615767045456 Q -0.4663640802556818 0.17045454545454547 -0.4559326171875 0.1974209872159091 Q -0.44550115411931823 0.22438742897727273 -0.43573552911931823 0.24968927556818182 Q -0.42596990411931823 0.27499112215909094 -0.41797984730113635 0.2956321022727273 Q -0.4099897904829546 0.31627308238636365 -0.4044411399147727 0.33092151988636365 Q -0.40421919389204547 0.33158735795454547 -0.40399724786931823 0.33203125 Q -0.40577281605113635 0.28852982954545453 -0.4068825461647727 0.23726029829545456 Q -0.4079922762784091 0.1748934659090909 -0.4087690873579546 0.14382102272727273 Q -0.4095458984375 0.11274857954545453 -0.41032270951704547 0.08089932528409094 Q -0.41109952059659094 0.04905007102272729 -0.4122092507102273 0.017755681818181823 Q -0.4122092507102273 0.010653409090909116 -0.4083251953125 0.0072132457386363535 Q -0.4044411399147727 0.0037730823863636465 -0.3997802734375 0.0037730823863636465 Q -0.3951194069602273 0.0037730823863636465 -0.3914572975852273 0.0072132457386363535 Q -0.3877951882102273 0.010653409090909116 -0.3877951882102273 0.017755681818181823 M -0.28858531605113635 0.07424094460227271 Q -0.2886962890625 0.08633700284090912 -0.2886962890625 0.17156427556818182 Q -0.2886962890625 0.25679154829545453 -0.2860329367897727 0.3508966619318182 Q -0.2858109907670454 0.3579989346590909 -0.2901389382102273 0.36177201704545453 Q -0.29446688565340906 0.3655450994318182 -0.29923872514204547 0.3655450994318182 Q -0.3040105646306818 0.3655450994318182 -0.3076726740056818 0.36221590909090906 Q -0.3113347833806818 0.35888671875 -0.3108908913352273 0.3473455255681818 Q -0.3104469992897727 0.33580433238636365 -0.3100031072443182 0.31538529829545453 Q -0.30955921519886365 0.29496626420454547 -0.30911532315340906 0.27188387784090906 Q -0.3082275390625 0.2261629971590909 -0.3082275390625 0.18654563210227273 Q -0.3082275390625 0.14692826704545456 -0.30833851207386365 0.12484463778409091 Q -0.3084494850852273 0.10276100852272729 -0.3088933771306818 0.08411754261363635 Q -0.30955921519886365 0.042835582386363646 -0.3113347833806818 0.018199573863636354 Q -0.31200062144886365 0.011097301136363646 -0.3087824041193182 0.007657137784090939 Q -0.3055641867897727 0.004216974431818177 -0.30045942826704547 0.004216974431818177 Q -0.2953546697443182 0.004216974431818177 -0.2909157492897727 0.007657137784090939 Q -0.2864768288352273 0.011097301136363646 -0.2868097478693182 0.019309303977272707 Q -0.28714266690340906 0.027521306818181823 -0.2874755859375 0.035511363636363646 Q -0.2878085049715909 0.04350142045454547 -0.2881414240056818 0.05282315340909094 Q -0.2884743430397727 0.062144886363636354 -0.28858531605113635 0.07424094460227271 M -0.04000577059659091 0.017755681818181823 Q -0.04133744673295456 0.12828480113636365 -0.04133744673295456 0.17411665482954547 Q -0.04133744673295456 0.21994850852272727 -0.04122647372159091 0.2413662997159091 Q -0.041115500710227265 0.26278409090909094 -0.0408935546875 0.28209339488636365 Q -0.04044966264204544 0.3229314630681818 -0.039894797585227265 0.3379128196022727 Q -0.03933993252840909 0.35289417613636365 -0.040671608664772735 0.3557794744318182 Q -0.042003284801136354 0.3586647727272727 -0.04422274502840909 0.3606622869318182 Q -0.053322531960227265 0.3688742897727273 -0.06353204900568182 0.36221590909090906 Q -0.06752707741477273 0.3595525568181818 -0.06930264559659091 0.3542258522727273 Q -0.08883389559659091 0.29696377840909094 -0.11635520241477273 0.2298251065340909 Q -0.14387650923295453 0.1626864346590909 -0.15475186434659088 0.13494318181818182 Q -0.17450506036931818 0.08456143465909094 -0.18915349786931818 0.042613636363636354 L -0.18626819957386365 0.3522283380681818 Q -0.18626819957386365 0.3591086647727273 -0.1898193359375 0.36243785511363635 Q -0.19337047230113635 0.36576704545454547 -0.19792036576704544 0.36576704545454547 Q -0.20247025923295453 0.36576704545454547 -0.20635431463068182 0.36210493607954547 Q -0.2102383700284091 0.35844282670454547 -0.21001642400568182 0.35111860795454547 Q -0.2077969637784091 0.29008345170454547 -0.2077969637784091 0.21195845170454544 L -0.2077969637784091 0.08034446022727271 Q -0.2077969637784091 0.04594282670454547 -0.20824085582386365 0.02108487215909094 Q -0.20824085582386365 0.012872869318181823 -0.2032470703125 0.008544921875 Q -0.19825328480113635 0.004216974431818177 -0.19270463423295453 0.004216974431818177 Q -0.18027565696022727 0.004216974431818177 -0.17628062855113635 0.015980113636363646 Q -0.17228560014204547 0.027743252840909116 -0.16496138139204547 0.047607421875 Q -0.15763716264204547 0.06747159090909094 -0.14853737571022727 0.09177468039772729 Q -0.1394375887784091 0.11607776988636365 -0.12900612571022727 0.14326615767045456 Q -0.11857466264204544 0.17045454545454547 -0.10814319957386365 0.1974209872159091 Q -0.09771173650568182 0.22438742897727273 -0.08794611150568182 0.24968927556818182 Q -0.07818048650568182 0.27499112215909094 -0.0701904296875 0.2956321022727273 Q -0.06220037286931818 0.31627308238636365 -0.056651722301136354 0.33092151988636365 Q -0.05642977627840909 0.33158735795454547 -0.05620783025568182 0.33203125 Q -0.0579833984375 0.28852982954545453 -0.059093128551136354 0.23726029829545456 Q -0.060202858664772735 0.1748934659090909 -0.06097966974431818 0.14382102272727273 Q -0.061756480823863646 0.11274857954545453 -0.06253329190340909 0.08089932528409094 Q -0.06331010298295453 0.04905007102272729 -0.06441983309659091 0.017755681818181823 Q -0.06441983309659091 0.010653409090909116 -0.060535777698863646 0.0072132457386363535 Q -0.056651722301136354 0.0037730823863636465 -0.051990855823863646 0.0037730823863636465 Q -0.04732998934659091 0.0037730823863636465 -0.04366787997159091 0.0072132457386363535 Q -0.04000577059659091 0.010653409090909116 -0.04000577059659091 0.017755681818181823 M 0.17583673650568182 0.10719992897727271 Q 0.17628062855113635 0.12184836647727273 0.16584916548295453 0.12184836647727273 Q 0.1614102450284091 0.12184836647727273 0.15785910866477273 0.11863014914772727 Q 0.15430797230113635 0.11541193181818182 0.15430797230113635 0.10897549715909094 Q 0.15430797230113635 0.03928444602272729 0.12456720525568182 0.027743252840909116 Q 0.11524547230113635 0.024192116477272707 0.10026411576704546 0.025301846590909116 Q 0.08528275923295454 0.02641157670454547 0.07252086292613637 0.038951526988636354 Q 0.05975896661931818 0.05149147727272729 0.05176890980113636 0.07257634943181818 Q 0.036676580255681816 0.11208274147727271 0.036676580255681816 0.1822176846590909 Q 0.036676580255681816 0.33092151988636365 0.08550470525568181 0.3460138494318182 Q 0.09371670809659091 0.3484552556818182 0.10259454900568181 0.3484552556818182 Q 0.14565207741477273 0.3484552556818182 0.15519575639204544 0.26744495738636365 Q 0.1580810546875 0.24125532670454547 0.15785910866477273 0.22993607954545456 Q 0.13810591264204544 0.22882634943181818 0.12501109730113635 0.2303799715909091 Q 0.11058460582386363 0.23215553977272727 0.10525790127840909 0.23215553977272727 Q 0.09993119673295454 0.23215553977272727 0.09671297940340909 0.22838245738636365 Q 0.09349476207386363 0.224609375 0.09349476207386363 0.2200594815340909 Q 0.09349476207386363 0.21550958806818182 0.09682395241477272 0.21195845170454544 Q 0.10015314275568181 0.2084073153409091 0.10714444247159091 0.20940607244318182 Q 0.1141357421875 0.21040482954545456 0.12101606889204544 0.21040482954545456 L 0.13388893821022727 0.21040482954545456 Q 0.14543013139204544 0.21040482954545456 0.15142267400568182 0.20951704545454544 Q 0.16185413707386362 0.20796342329545456 0.1669588955965909 0.20796342329545456 Q 0.1785000887784091 0.20796342329545456 0.1785000887784091 0.22105823863636365 Q 0.1785000887784091 0.29097123579545453 0.15785910866477273 0.33069957386363635 Q 0.13677423650568182 0.37064985795454547 0.10059703480113635 0.37064985795454547 Q 0.05687366832386363 0.37064985795454547 0.0360107421875 0.32470703125 Q 0.014925870028409092 0.27787642045454547 0.014925870028409092 0.17800071022727273 Q 0.014925870028409092 0.00887784090909094 0.10481400923295454 0.0037730823863636465 Q 0.17583673650568182 0 0.17583673650568182 0.10719992897727271 M 0.44239390980113635 0.27388139204545453 Q 0.44239390980113635 0.26655717329545453 0.44605601917613635 0.262451171875 Q 0.44971812855113635 0.25834517045454547 0.4544899680397727 0.25834517045454547 Q 0.45926180752840906 0.25834517045454547 0.46292391690340906 0.2617853338068182 Q 0.46658602627840906 0.26522549715909094 0.46614213423295453 0.27232776988636365 Q 0.46392267400568177 0.3171608664772727 0.44195001775568177 0.3444602272727273 Q 0.4208651455965909 0.37064985795454547 0.3891268643465909 0.37064985795454547 Q 0.32920143821022724 0.37064985795454547 0.3116677024147727 0.2809836647727273 Q 0.30500932173295453 0.24791370738636365 0.30500932173295453 0.2029696377840909 Q 0.30500932173295453 0.15802556818181818 0.31055797230113635 0.12284712357954547 Q 0.3161066228693182 0.08766867897727271 0.32742587002840906 0.06170099431818182 Q 0.3516179865056818 0.0062144886363636465 0.39622913707386365 0.0062144886363636465 Q 0.4308527166193182 0.0062144886363636465 0.44749866832386365 0.03351384943181818 Q 0.4650324041193182 0.06258877840909094 0.4650324041193182 0.1285067471590909 Q 0.4650324041193182 0.1358309659090909 0.46170321377840906 0.1394930752840909 Q 0.4583740234375 0.1431551846590909 0.4537131569602273 0.1431551846590909 Q 0.4435036399147727 0.1431551846590909 0.4435036399147727 0.1302823153409091 Q 0.4435036399147727 0.04816228693181818 0.41731400923295453 0.03240411931818182 Q 0.40799227627840906 0.02685546875 0.3955632990056818 0.02685546875 Q 0.38313432173295453 0.02685546875 0.3732577237215909 0.033846768465909116 Q 0.3633811257102273 0.04083806818181818 0.35572398792613635 0.05315607244318182 Q 0.3480668501420454 0.06547407670454547 0.34251819957386365 0.08223100142045453 Q 0.3369695490056818 0.09898792613636365 0.3334184126420454 0.11829723011363635 Q 0.3263161399147727 0.15735973011363635 0.3263161399147727 0.19542347301136365 Q 0.3263161399147727 0.2334872159090909 0.3287575461647727 0.25645862926136365 Q 0.3311989524147727 0.27943004261363635 0.3356378728693182 0.29574307528409094 Q 0.34007679332386365 0.31205610795454547 0.34618030894886365 0.32237659801136365 Q 0.35228382457386365 0.3326970880681818 0.35960804332386365 0.3386896306818182 Q 0.3720370205965909 0.34912109375 0.39134632457386365 0.34912109375 Q 0.41287508877840906 0.34912109375 0.4266357421875 0.33158735795454547 Q 0.4428378018465909 0.31139026988636365 0.44239390980113635 0.27388139204545453 M 0.6000865589488636 0.37064985795454547 Q 0.5536998401988636 0.37064985795454547 0.5318381569602273 0.32270951704545453 Q 0.5099764737215909 0.27476917613636365 0.5099764737215909 0.18110795454545456 Q 0.5099764737215909 0.10719992897727271 0.5350563742897727 0.057040127840909116 Q 0.5474853515625 0.032626065340909116 0.5652410333806819 0.018088600852272707 Q 0.5829967151988636 0.0035511363636363535 0.6061900745738636 0.0035511363636363535 Q 0.6293834339488636 0.0035511363636363535 0.6466952237215909 0.015647194602272707 Q 0.6640070134943181 0.027743252840909116 0.6753262606534091 0.05060369318181818 Q 0.6975208629261364 0.09543678977272729 0.6979647549715909 0.18110795454545456 Q 0.6984086470170454 0.2712180397727273 0.6722190163352273 0.3213778409090909 Q 0.6464732776988636 0.37064985795454547 0.6000865589488636 0.37064985795454547 M 0.6298273259943181 0.02962979403409094 Q 0.6193958629261364 0.023082386363636354 0.6067449396306819 0.023082386363636354 Q 0.5940940163352273 0.023082386363636354 0.5838844992897727 0.02962979403409094 Q 0.5736749822443182 0.03617720170454547 0.5653520063920454 0.047718394886363646 Q 0.5570290305397727 0.05925958806818182 0.5507035688920454 0.07490678267045453 Q 0.5443781072443182 0.09055397727272729 0.5399391867897727 0.10853160511363635 Q 0.5312832919034091 0.14537464488636365 0.5312832919034091 0.18210671164772727 Q 0.5312832919034091 0.2188387784090909 0.5340576171875 0.24369673295454547 Q 0.5368319424715909 0.2685546875 0.5417147549715909 0.2866432883522727 Q 0.5465975674715909 0.30473188920454547 0.5533669211647727 0.3168279474431818 Q 0.5601362748579546 0.3289240056818182 0.5679043856534091 0.3362482244318182 Q 0.5823308771306819 0.3493430397727273 0.6023060191761364 0.3493430397727273 Q 0.6613436612215909 0.3493430397727273 0.6739945845170454 0.2408114346590909 Q 0.6768798828125 0.21595348011363635 0.6768798828125 0.19020774147727273 Q 0.6768798828125 0.1644620028409091 0.6753262606534091 0.14515269886363635 Q 0.6737726384943181 0.12584339488636365 0.6703324751420454 0.10797674005681818 Q 0.6668923117897727 0.09011008522727271 0.6614546342329546 0.07457386363636365 Q 0.6560169566761364 0.05903764204545453 0.6481378728693181 0.047607421875 Q 0.6402587890625 0.03617720170454547 0.6298273259943181 0.02962979403409094 M 0.9737326882102273 0.08722478693181818 L 0.9739546342329546 0.16734730113636365 Q 0.9739546342329546 0.2512428977272727 0.9775057705965908 0.3517844460227273 Q 0.9777277166193181 0.35888671875 0.9738436612215908 0.36221590909090906 Q 0.9699596058238636 0.3655450994318182 0.9650767933238636 0.3655450994318182 Q 0.9601939808238636 0.3655450994318182 0.9561989524147727 0.36177201704545453 Q 0.9522039240056819 0.3579989346590909 0.9522039240056819 0.3508966619318182 Q 0.9555331143465909 0.25102095170454547 0.9555331143465909 0.18443714488636365 L 0.9555331143465909 0.06946910511363635 Q 0.9555331143465909 0.05659623579545453 0.9553111683238636 0.045276988636363646 Q 0.9504283558238636 0.06414240056818182 0.9426602450284091 0.09432705965909094 Q 0.9249045632102273 0.16068892045454547 0.9178022904829546 0.18610174005681818 Q 0.9107000177556819 0.2115145596590909 0.9035977450284091 0.23615056818181818 Q 0.8889493075284091 0.28697620738636365 0.8762983842329546 0.3253728693181818 Q 0.8749667080965909 0.3298117897727273 0.8710826526988636 0.33203125 Q 0.8671985973011364 0.3342507102272727 0.8636474609375 0.3342507102272727 Q 0.8567671342329546 0.3342507102272727 0.8543257279829546 0.3253728693181818 Q 0.8532159978693181 0.32182173295454547 0.8491099964488636 0.3081720525568182 Q 0.8450039950284091 0.29452237215909094 0.8389004794034091 0.2744362571022727 Q 0.8327969637784091 0.25435014204545453 0.8253617720170454 0.22938121448863635 Q 0.8179265802556819 0.20441228693181818 0.8100474964488636 0.17822265625 Q 0.8021684126420454 0.15203302556818182 0.7946222478693182 0.12628728693181818 Q 0.7870760830965909 0.10054154829545453 0.7808615944602273 0.07879083806818182 Q 0.7757568359375 0.06081321022727271 0.7722056995738636 0.047718394886363646 L 0.7726495916193182 0.10276100852272729 Q 0.7726495916193182 0.20330255681818182 0.7747580788352273 0.26899857954545453 Q 0.7768665660511364 0.3346946022727273 0.7770885120738636 0.34534801136363635 Q 0.7773104580965909 0.35600142045454547 0.7760897549715909 0.35844282670454547 Q 0.7748690518465909 0.36088423295454547 0.7728715376420454 0.36243785511363635 Q 0.7642156427556819 0.36976207386363635 0.7557816938920454 0.3619939630681818 Q 0.7517866654829546 0.3582208806818182 0.7523415305397727 0.34867720170454547 Q 0.7528963955965909 0.3391335227272727 0.7533402876420454 0.32481800426136365 Q 0.7537841796875 0.31050248579545453 0.7540061257102273 0.29452237215909094 Q 0.7548939098011364 0.25679154829545453 0.7548939098011364 0.224609375 L 0.7522305575284091 0.022638494318181823 Q 0.7522305575284091 0.01265092329545453 0.7568914240056819 0.008544921875 Q 0.7615522904829546 0.00443892045454547 0.7677667791193182 0.00443892045454547 Q 0.7795299183238636 0.00443892045454547 0.7839688387784091 0.01864346590909094 Q 0.7844127308238636 0.01997514204545453 0.7862992720170454 0.026522549715909116 Q 0.7881858132102273 0.033069957386363646 0.7912930575284091 0.043612393465909116 Q 0.7944003018465909 0.05415482954545453 0.7985063032670454 0.06802645596590912 Q 0.8026123046875 0.08189808238636365 0.8072731711647727 0.09787819602272729 Q 0.8119340376420454 0.11385830965909094 0.8170387961647727 0.13139204545454547 Q 0.8347944779829546 0.19242720170454544 0.8660888671875 0.2985174005681818 Q 0.8825128728693181 0.2516867897727273 0.9266801313920454 0.08611505681818182 Q 0.9353360262784091 0.05326704545454547 0.9439919211647727 0.01908735795454547 Q 0.9479869495738636 0.0037730823863636465 0.9624134410511364 0.0037730823863636465 Q 0.9681840376420454 0.0037730823863636465 0.9716242009943181 0.009432705965909116 Q 0.9750643643465908 0.01509232954545453 0.9746204723011364 0.025745738636363646 Q 0.9737326882102273 0.04061612215909094 0.9737326882102273 0.08722478693181818 M 1.0714999112215908 0.26766690340909094 Q 1.0732754794034092 0.32115589488636365 1.0741632634943181 0.35000887784090906 Q 1.0743852095170454 0.35755504261363635 1.0705011541193181 0.36121715198863635 Q 1.0666170987215908 0.36487926136363635 1.0620672052556819 0.36487926136363635 Q 1.0575173117897727 0.36487926136363635 1.0539661754261365 0.36143909801136365 Q 1.0504150390625 0.3579989346590909 1.0504150390625 0.35045276988636365 L 1.0504150390625 0.30029296875 L 1.0501930930397727 0.23148970170454544 L 1.0501930930397727 0.16978870738636365 Q 1.0501930930397727 0.10941938920454547 1.0491943359375 0.09299538352272729 Q 1.0481955788352273 0.07657137784090912 1.0477516867897727 0.06813742897727271 Q 1.0473077947443181 0.059703480113636354 1.0466419566761365 0.050936612215909116 Q 1.0459761186079546 0.04216974431818182 1.0454212535511365 0.03373579545454547 Q 1.0448663884943181 0.025301846590909116 1.0465309836647727 0.022194602272727293 Q 1.0481955788352273 0.01908735795454547 1.0506369850852273 0.017644708806818177 Q 1.0530783913352273 0.01620205965909094 1.0557417436079546 0.015758167613636354 Q 1.0584050958806819 0.015314275568181823 1.0670609907670454 0.013094815340909116 Q 1.0943603515625 0.006436434659090939 1.1154452237215908 0.006436434659090939 Q 1.1365300958806819 0.006436434659090939 1.1511785333806819 0.01176313920454547 Q 1.1658269708806819 0.01708984375 1.1762584339488638 0.027965198863636354 Q 1.1984530362215908 0.05082563920454547 1.1984530362215908 0.09321732954545453 Q 1.1984530362215908 0.15092329545454547 1.1580588600852273 0.19908558238636365 Q 1.1254327947443181 0.23792613636363635 1.0714999112215908 0.26766690340909094 M 1.0708340731534092 0.24658203125 Q 1.1780340021306819 0.18843217329545456 1.1780340021306819 0.09521484375 Q 1.1780340021306819 0.0439453125 1.1425226384943181 0.029296875 Q 1.1161110617897727 0.018421519886363646 1.0783802379261365 0.03129438920454547 Q 1.0739413174715908 0.032848011363636354 1.0699462890625 0.03440163352272729 Q 1.0683926669034092 0.0732421875 1.0683926669034092 0.11430220170454547 L 1.0683926669034092 0.18132990056818182 Q 1.0683926669034092 0.185546875 1.0686146129261365 0.1895419034090909 Q 1.0688365589488638 0.19353693181818182 1.0689475319602273 0.1980868252840909 Q 1.0690585049715908 0.20263671875 1.0693914240056819 0.20984996448863635 Q 1.0697243430397727 0.21706321022727273 1.0701682350852273 0.2279385653409091 Q 1.0703901811079546 0.23570667613636365 1.0708340731534092 0.24658203125 M 1.3059858842329546 0.005770596590909116 Q 1.3113125887784092 0.005770596590909116 1.3157515092329546 0.01020951704545453 Q 1.3201904296875 0.0146484375 1.3227428089488638 0.028742009943181823 Q 1.3252951882102273 0.042835582386363646 1.3305109197443183 0.06902521306818182 Q 1.3357266512784092 0.09521484375 1.3421630859375 0.12495561079545456 Q 1.348599520596591 0.1546963778409091 1.3557017933238638 0.18632368607954544 Q 1.3628040660511365 0.21795099431818182 1.3699063387784092 0.24769176136363635 Q 1.3869961825284092 0.3173828125 1.3965398615056819 0.34956498579545453 Q 1.3987593217329546 0.35777698863636365 1.3953191583806819 0.36265980113636365 Q 1.3918789950284092 0.36754261363636365 1.387662020596591 0.36754261363636365 Q 1.3834450461647727 0.36754261363636365 1.3800048828125 0.36510120738636365 Q 1.3765647194602273 0.36265980113636365 1.3739013671875 0.3506747159090909 Q 1.3712380149147727 0.3386896306818182 1.3652454723011365 0.3118341619318182 Q 1.3592529296875 0.2849786931818182 1.3523726029829546 0.2541281960227273 Q 1.3521506569602273 0.25279651988636365 1.3519287109375 0.2516867897727273 Q 1.3368363813920454 0.25102095170454547 1.3093150745738638 0.25102095170454547 Q 1.2769109552556819 0.25102095170454547 1.2598211115056819 0.25190873579545453 Q 1.2595991654829546 0.2532404119318182 1.2593772194602273 0.2545720880681818 Q 1.2458385120738638 0.31982421875 1.2394020774147727 0.3555575284090909 Q 1.2371826171875 0.3668767755681818 1.2276389382102273 0.3668767755681818 Q 1.2176513671875 0.3668767755681818 1.2154319069602273 0.3571111505681818 Q 1.2147660688920456 0.3542258522727273 1.216763583096591 0.34801136363636365 Q 1.2187610973011365 0.341796875 1.2226451526988638 0.3265935724431818 Q 1.226529208096591 0.31139026988636365 1.2310791015625 0.291748046875 Q 1.2356289950284092 0.27210582386363635 1.2407337535511365 0.2488014914772727 Q 1.2458385120738638 0.2254971590909091 1.2511652166193183 0.20086115056818182 Q 1.2564919211647727 0.17622514204545456 1.2618186257102273 0.15125621448863635 Q 1.2671453302556819 0.12628728693181818 1.2720281427556819 0.10298295454545453 Q 1.2769109552556819 0.07967862215909094 1.2812389026988638 0.05925958806818182 Q 1.2855668501420456 0.03884055397727271 1.2882302024147727 0.02685546875 Q 1.292447176846591 0.005770596590909116 1.3059858842329546 0.005770596590909116 M 1.2640380859375 0.23126775568181818 Q 1.2809059836647727 0.23215553977272727 1.309537020596591 0.23215553977272727 Q 1.3332852450284092 0.23215553977272727 1.3474897904829546 0.23148970170454544 Q 1.3428289240056819 0.21129261363636365 1.3381680575284092 0.18998579545454544 Q 1.3308438387784092 0.15691583806818182 1.324185458096591 0.12584339488636365 Q 1.3130881569602273 0.07501775568181818 1.3050981001420454 0.03662109375 Q 1.2999933416193183 0.062144886363636354 1.2904496626420456 0.10609019886363635 Q 1.2780206853693183 0.16468394886363635 1.2715842507102273 0.1953125 Q 1.2678111683238638 0.21373401988636365 1.2640380859375 0.23126775568181818 M 1.6150457208806817 0.017755681818181823 Q 1.6137140447443181 0.12828480113636365 1.6137140447443181 0.17411665482954547 Q 1.6137140447443181 0.21994850852272727 1.6138250177556817 0.2413662997159091 Q 1.6139359907670454 0.26278409090909094 1.6141579367897727 0.28209339488636365 Q 1.6146018288352273 0.3229314630681818 1.6151566938920454 0.3379128196022727 Q 1.6157115589488635 0.35289417613636365 1.6143798828125 0.3557794744318182 Q 1.6130482066761362 0.3586647727272727 1.6108287464488635 0.3606622869318182 Q 1.6017289595170454 0.3688742897727273 1.5915194424715908 0.36221590909090906 Q 1.5875244140625 0.3595525568181818 1.5857488458806817 0.3542258522727273 Q 1.5662175958806817 0.29696377840909094 1.5386962890625 0.2298251065340909 Q 1.5111749822443181 0.1626864346590909 1.5002996271306819 0.13494318181818182 Q 1.4805464311079546 0.08456143465909094 1.4658979936079546 0.042613636363636354 L 1.468783291903409 0.3522283380681818 Q 1.468783291903409 0.3591086647727273 1.4652321555397727 0.36243785511363635 Q 1.4616810191761362 0.36576704545454547 1.4571311257102273 0.36576704545454547 Q 1.4525812322443181 0.36576704545454547 1.4486971768465908 0.36210493607954547 Q 1.4448131214488635 0.35844282670454547 1.4450350674715908 0.35111860795454547 Q 1.4472545276988635 0.29008345170454547 1.4472545276988635 0.21195845170454544 L 1.4472545276988635 0.08034446022727271 Q 1.4472545276988635 0.04594282670454547 1.446810635653409 0.02108487215909094 Q 1.446810635653409 0.012872869318181823 1.4518044211647727 0.008544921875 Q 1.4567982066761362 0.004216974431818177 1.4623468572443181 0.004216974431818177 Q 1.4747758345170454 0.004216974431818177 1.4787708629261362 0.015980113636363646 Q 1.4827658913352273 0.027743252840909116 1.4900901100852273 0.047607421875 Q 1.4974143288352273 0.06747159090909094 1.5065141157670454 0.09177468039772729 Q 1.5156139026988635 0.11607776988636365 1.5260453657670454 0.14326615767045456 Q 1.5364768288352273 0.17045454545454547 1.546908291903409 0.1974209872159091 Q 1.5573397549715908 0.22438742897727273 1.5671053799715908 0.24968927556818182 Q 1.5768710049715908 0.27499112215909094 1.5848610617897727 0.2956321022727273 Q 1.5928511186079546 0.31627308238636365 1.5983997691761362 0.33092151988636365 Q 1.5986217151988635 0.33158735795454547 1.5988436612215908 0.33203125 Q 1.5970680930397727 0.28852982954545453 1.5959583629261362 0.23726029829545456 Q 1.5948486328125 0.1748934659090909 1.5940718217329546 0.14382102272727273 Q 1.593295010653409 0.11274857954545453 1.5925181995738635 0.08089932528409094 Q 1.5917413884943181 0.04905007102272729 1.5906316583806817 0.017755681818181823 Q 1.5906316583806817 0.010653409090909116 1.594515713778409 0.0072132457386363535 Q 1.5983997691761362 0.0037730823863636465 1.603060635653409 0.0037730823863636465 Q 1.6077215021306817 0.0037730823863636465 1.6113836115056817 0.0072132457386363535 Q 1.6150457208806817 0.010653409090909116 1.6150457208806817 0.017755681818181823 M 1.7142555930397727 0.07424094460227271 Q 1.7141446200284092 0.08633700284090912 1.7141446200284092 0.17156427556818182 Q 1.7141446200284092 0.25679154829545453 1.7168079723011362 0.3508966619318182 Q 1.7170299183238635 0.3579989346590909 1.7127019708806819 0.36177201704545453 Q 1.7083740234375 0.3655450994318182 1.7036021839488635 0.3655450994318182 Q 1.6988303444602273 0.3655450994318182 1.6951682350852273 0.36221590909090906 Q 1.6915061257102273 0.35888671875 1.6919500177556819 0.3473455255681818 Q 1.6923939098011362 0.33580433238636365 1.6928378018465908 0.31538529829545453 Q 1.6932816938920454 0.29496626420454547 1.6937255859375 0.27188387784090906 Q 1.6946133700284092 0.2261629971590909 1.6946133700284092 0.18654563210227273 Q 1.6946133700284092 0.14692826704545456 1.6945023970170454 0.12484463778409091 Q 1.6943914240056819 0.10276100852272729 1.6939475319602273 0.08411754261363635 Q 1.6932816938920454 0.042835582386363646 1.6915061257102273 0.018199573863636354 Q 1.6908402876420454 0.011097301136363646 1.6940585049715908 0.007657137784090939 Q 1.6972767223011362 0.004216974431818177 1.7023814808238635 0.004216974431818177 Q 1.7074862393465908 0.004216974431818177 1.7119251598011362 0.007657137784090939 Q 1.7163640802556819 0.011097301136363646 1.7160311612215908 0.019309303977272707 Q 1.7156982421875 0.027521306818181823 1.7153653231534092 0.035511363636363646 Q 1.7150324041193181 0.04350142045454547 1.7146994850852273 0.05282315340909094 Q 1.7143665660511362 0.062144886363636354 1.7142555930397727 0.07424094460227271 M 1.8689519708806819 0.37064985795454547 Q 1.8225652521306819 0.37064985795454547 1.8007035688920454 0.32270951704545453 Q 1.7788418856534092 0.27476917613636365 1.7788418856534092 0.18110795454545456 Q 1.7788418856534092 0.10719992897727271 1.803921786221591 0.057040127840909116 Q 1.8163507634943183 0.032626065340909116 1.8341064453125 0.018088600852272707 Q 1.8518621271306819 0.0035511363636363535 1.8750554865056819 0.0035511363636363535 Q 1.8982488458806819 0.0035511363636363535 1.9155606356534092 0.015647194602272707 Q 1.9328724254261365 0.027743252840909116 1.9441916725852273 0.05060369318181818 Q 1.9663862748579546 0.09543678977272729 1.9668301669034092 0.18110795454545456 Q 1.9672740589488638 0.2712180397727273 1.9410844282670454 0.3213778409090909 Q 1.9153386896306819 0.37064985795454547 1.8689519708806819 0.37064985795454547 M 1.8986927379261365 0.02962979403409094 Q 1.8882612748579546 0.023082386363636354 1.8756103515625 0.023082386363636354 Q 1.8629594282670454 0.023082386363636354 1.852749911221591 0.02962979403409094 Q 1.8425403941761365 0.03617720170454547 1.8342174183238638 0.047718394886363646 Q 1.825894442471591 0.05925958806818182 1.8195689808238638 0.07490678267045453 Q 1.8132435191761365 0.09055397727272729 1.808804598721591 0.10853160511363635 Q 1.8001487038352273 0.14537464488636365 1.8001487038352273 0.18210671164772727 Q 1.8001487038352273 0.2188387784090909 1.8029230291193183 0.24369673295454547 Q 1.8056973544034092 0.2685546875 1.8105801669034092 0.2866432883522727 Q 1.8154629794034092 0.30473188920454547 1.822232333096591 0.3168279474431818 Q 1.8290016867897727 0.3289240056818182 1.8367697975852273 0.3362482244318182 Q 1.8511962890625 0.3493430397727273 1.8711714311079546 0.3493430397727273 Q 1.9302090731534092 0.3493430397727273 1.9428599964488638 0.2408114346590909 Q 1.9457452947443183 0.21595348011363635 1.9457452947443183 0.19020774147727273 Q 1.9457452947443183 0.1644620028409091 1.9441916725852273 0.14515269886363635 Q 1.9426380504261365 0.12584339488636365 1.9391978870738638 0.10797674005681818 Q 1.935757723721591 0.09011008522727271 1.9303200461647727 0.07457386363636365 Q 1.9248823686079546 0.05903764204545453 1.9170032848011365 0.047607421875 Q 1.9091242009943183 0.03617720170454547 1.8986927379261365 0.02962979403409094 M 2.1911066228693183 0.017755681818181823 Q 2.1897749467329546 0.12828480113636365 2.1897749467329546 0.17411665482954547 Q 2.1897749467329546 0.21994850852272727 2.1898859197443183 0.2413662997159091 Q 2.1899968927556817 0.26278409090909094 2.190218838778409 0.28209339488636365 Q 2.1906627308238638 0.3229314630681818 2.1912175958806817 0.3379128196022727 Q 2.1917724609375 0.35289417613636365 2.1904407848011362 0.3557794744318182 Q 2.189109108664773 0.3586647727272727 2.1868896484375 0.3606622869318182 Q 2.1777898615056817 0.3688742897727273 2.1675803444602275 0.36221590909090906 Q 2.1635853160511362 0.3595525568181818 2.1618097478693183 0.3542258522727273 Q 2.1422784978693183 0.29696377840909094 2.1147571910511362 0.2298251065340909 Q 2.0872358842329546 0.1626864346590909 2.0763605291193183 0.13494318181818182 Q 2.056607333096591 0.08456143465909094 2.041958895596591 0.042613636363636354 L 2.0448441938920454 0.3522283380681818 Q 2.0448441938920454 0.3591086647727273 2.041293057528409 0.36243785511363635 Q 2.037741921164773 0.36576704545454547 2.0331920276988638 0.36576704545454547 Q 2.0286421342329546 0.36576704545454547 2.0247580788352275 0.36210493607954547 Q 2.0208740234375 0.35844282670454547 2.0210959694602275 0.35111860795454547 Q 2.0233154296875 0.29008345170454547 2.0233154296875 0.21195845170454544 L 2.0233154296875 0.08034446022727271 Q 2.0233154296875 0.04594282670454547 2.0228715376420454 0.02108487215909094 Q 2.0228715376420454 0.012872869318181823 2.027865323153409 0.008544921875 Q 2.032859108664773 0.004216974431818177 2.0384077592329546 0.004216974431818177 Q 2.0508367365056817 0.004216974431818177 2.054831764914773 0.015980113636363646 Q 2.0588267933238638 0.027743252840909116 2.0661510120738638 0.047607421875 Q 2.0734752308238638 0.06747159090909094 2.0825750177556817 0.09177468039772729 Q 2.0916748046875 0.11607776988636365 2.1021062677556817 0.14326615767045456 Q 2.1125377308238638 0.17045454545454547 2.1229691938920454 0.1974209872159091 Q 2.1334006569602275 0.22438742897727273 2.1431662819602275 0.24968927556818182 Q 2.1529319069602275 0.27499112215909094 2.160921963778409 0.2956321022727273 Q 2.168912020596591 0.31627308238636365 2.174460671164773 0.33092151988636365 Q 2.1746826171875 0.33158735795454547 2.1749045632102275 0.33203125 Q 2.173128995028409 0.28852982954545453 2.172019264914773 0.23726029829545456 Q 2.1709095348011362 0.1748934659090909 2.170132723721591 0.14382102272727273 Q 2.1693559126420454 0.11274857954545453 2.1685791015625 0.08089932528409094 Q 2.1678022904829546 0.04905007102272729 2.1666925603693183 0.017755681818181823 Q 2.1666925603693183 0.010653409090909116 2.1705766157670454 0.0072132457386363535 Q 2.174460671164773 0.0037730823863636465 2.1791215376420454 0.0037730823863636465 Q 2.1837824041193183 0.0037730823863636465 2.1874445134943183 0.0072132457386363535 Q 2.1911066228693183 0.010653409090909116 2.1911066228693183 0.017755681818181823" fill="#ffffff" fill-rule="nonzero"></path></g><g transform="matrix(1,0,0,1,0,0)"><g transform="matrix(1,0,0,1,0,0)" clip-path="url(#SvgjsClipPath11442)"><g clip-path="url(#SvgjsClipPath11440384a1ba7-81fd-4113-add8-ec65626e28f9)"><path d=" M 0.4850974320233894 -1.1884536301223305 C 0.6469715574687716 -1.4525843377677343 1.3844709562727233 -1.1410442062916086 1.289652108611279 -1.777657500843033 C 1.1887449740066167 -1.2405983882422222 0.583302166378644 -1.6882539688564717 0.32731020500966657 -1.2825960014567506 C 0.06249951597854975 -0.863359436694896 0.9686378034981249 -0.5701297318113843 0.14107942673272422 -0.18750000000000022 C 1.1690991200534009 -0.4604213948380289 0.3130796667313338 -0.9074040041839434 0.4850974320233894 -1.1884536301223305 Z" fill="#9469e6" transform="matrix(1,0,0,1,0,0)" fill-rule="nonzero"></path></g><g clip-path="url(#SvgjsClipPath11440384a1ba7-81fd-4113-add8-ec65626e28f9)"><path d=" M -0.6377376039000426 -1.667251657190518 C -0.4081597648132119 -1.6652222282094453 0.07538060666152391 -1.713984604694216 0.0990853185768843 -1.4607020536920243 C 0.13902896739951554 -1.03404177462635 -0.7948518596454309 -0.556596700212211 -1.2154203467091982 -0.47666383680398816 C -0.6709164894524318 -0.4285989669983774 0.4051926090846807 -0.9487006056606233 0.285312591795138 -1.5033726381748878 C 0.21828535448071418 -1.8155682156259023 -0.30860207780390936 -1.7390422692636254 -0.6377376039000426 -1.667251657190518 Z" fill="#ffd700" transform="matrix(1,0,0,1,0,0)" fill-rule="nonzero"></path></g><g clip-path="url(#SvgjsClipPath11440384a1ba7-81fd-4113-add8-ec65626e28f9)"><path d=" M 0.5398569639254578 -1.8950138758763198 C 0.6460146764466081 -1.8665738296717895 0.7090075912097118 -1.7574543425582272 0.6805675450051811 -1.6512966300370766 C 0.6521274988006505 -1.5451634529267508 0.5430080116870888 -1.4821705381636474 0.4368538042246273 -1.5106070793094886 C 0.33069609170347647 -1.539047125514019 0.2676996718816842 -1.6481701176862704 0.29613971808621464 -1.7543243251487317 C 0.32458326934943416 -1.8604575022590575 0.433699251404307 -1.923478457491675 0.5398569639254578 -1.8950138758763198 Z" fill="#9469e6" transform="matrix(1,0,0,1,0,0)" fill-rule="nonzero"></path></g><g clip-path="url(#SvgjsClipPath11440384a1ba7-81fd-4113-add8-ec65626e28f9)"><path d=" M -0.7501483411228054 -0.680528565346521 L -1.2980345800146929 -0.6581768060852085 L -0.8354930151472216 -0.6405393507609292 C -0.8070494638840018 -0.6534204414439029 -0.7786129227381605 -0.6669990388060367 -0.7501483411228054 -0.680528565346521 Z" fill="#9469e6" transform="matrix(1,0,0,1,0,0)" fill-rule="nonzero"></path></g><g clip-path="url(#SvgjsClipPath11440384a1ba7-81fd-4113-add8-ec65626e28f9)"><path d=" M -1.0975942938115526 -0.8355923617587007 L -0.5253268666772797 -0.8004085826360638 C -0.4887410640789448 -0.8220593301595276 -0.4521833019501238 -0.8451121011586893 -0.41697498741666195 -0.8681122962775121 L -1.0975942938115526 -0.8355923617587007 Z" fill="#9469e6" transform="matrix(1,0,0,1,0,0)" fill-rule="nonzero"></path></g><g clip-path="url(#SvgjsClipPath11440384a1ba7-81fd-4113-add8-ec65626e28f9)"><path d=" M -1.1402438479422805 -1.0015183350488495 L -0.28557734727426154 -0.9615746862262186 C -0.24901608008675158 -0.9899901970199242 -0.21516422326602758 -1.0184582836939686 -0.18264078368852688 -1.047595836577659 L -1.1402438479422805 -1.0015183350488495 Z" fill="#9469e6" transform="matrix(1,0,0,1,0,0)" fill-rule="nonzero"></path></g><g clip-path="url(#SvgjsClipPath11440384a1ba7-81fd-4113-add8-ec65626e28f9)"><path d=" M -1.1070684674485807 -1.1715101764185223 L -0.1067913136532741 -1.1227723353445764 C -0.07767479112171949 -1.1545947631842282 -0.051944155283975224 -1.187097172409593 -0.029592396022662504 -1.218923105307934 L -1.1070684674485807 -1.1715101764185223 Z" fill="#9469e6" transform="matrix(1,0,0,1,0,0)" fill-rule="nonzero"></path></g><g clip-path="url(#SvgjsClipPath11440384a1ba7-81fd-4113-add8-ec65626e28f9)"><path d=" M -0.89034367857521 -1.3442079230962918 L 0.01444165629031735 -1.294092593957473 C 0.03068059319758709 -1.3266160335349735 0.04220522616782363 -1.3591184427603382 0.0489699894380653 -1.3916173469270139 L -0.89034367857521 -1.3442079230962918 Z" fill="#9469e6" transform="matrix(1,0,0,1,0,0)" fill-rule="nonzero"></path></g><g clip-path="url(#SvgjsClipPath11440384a1ba7-81fd-4113-add8-ec65626e28f9)"><path d=" M -0.8991378708265247 -1.5175821461010854 L 0.05508281179210761 -1.464764416712859 C 0.054385305112948146 -1.5013256839003692 0.03544046289758107 -1.5345220947462044 0.007652357609250204 -1.5541679486994204 L -0.8991378708265247 -1.5175821461010854 Z" fill="#9469e6" transform="matrix(1,0,0,1,0,0)" fill-rule="nonzero"></path></g></g></g></g><defs><clipPath id="SvgjsClipPath11442"><path d=" M -1.2980345800146929 -1.901850560941242 h 2.5960691600293857 v 1.714350560941242 h -2.5960691600293857 Z"></path></clipPath><clipPath id="SvgjsClipPath11440384a1ba7-81fd-4113-add8-ec65626e28f9"><path d=" M -1.2980345800146929 -1.9018505609412417 L 1.2980345800146929 -1.9018505609412417 L 1.2980345800146929 -0.1875 L -1.2980345800146929 -0.1875 Z"></path></clipPath></defs></svg>